<svg width="52" height="57" viewBox="0 0 52 57" fill="none" xmlns="http://www.w3.org/2000/svg">
<mask id="path-1-inside-1_6_439" fill="white">
<path d="M16 21.5C16 19.8431 17.3431 18.5 19 18.5H37C38.6569 18.5 40 19.8431 40 21.5C40 23.1569 38.6569 24.5 37 24.5H19C17.3431 24.5 16 23.1569 16 21.5Z"/>
</mask>
<path d="M16 21.5C16 18.7386 18.2386 16.5 21 16.5H35C37.7614 16.5 40 18.7386 40 21.5C40 20.9477 38.6569 20.5 37 20.5H19C17.3431 20.5 16 20.9477 16 21.5ZM40 24.5H16H40ZM16 24.5V18.5V24.5ZM40 18.5V24.5V18.5Z" fill="black" mask="url(#path-1-inside-1_6_439)"/>
<mask id="path-3-inside-2_6_439" fill="white">
<path d="M16 18.5C16 16.8431 17.3431 15.5 19 15.5H37C38.6569 15.5 40 16.8431 40 18.5V19.5C40 21.1569 38.6569 22.5 37 22.5H19C17.3431 22.5 16 21.1569 16 19.5V18.5Z"/>
</mask>
<path d="M16 15.5H40H16ZM40 19.5C40 22.2614 37.7614 24.5 35 24.5H21C18.2386 24.5 16 22.2614 16 19.5C16 20.0523 17.3431 20.5 19 20.5H37C38.6569 20.5 40 20.0523 40 19.5ZM16 22.5V15.5V22.5ZM40 15.5V22.5V15.5Z" fill="black" mask="url(#path-3-inside-2_6_439)"/>
<mask id="path-5-inside-3_6_439" fill="white">
<path d="M16 29.5C16 27.8431 17.3431 26.5 19 26.5H37C38.6569 26.5 40 27.8431 40 29.5C40 31.1569 38.6569 32.5 37 32.5H19C17.3431 32.5 16 31.1569 16 29.5Z"/>
</mask>
<path d="M16 29.5C16 26.7386 18.2386 24.5 21 24.5H35C37.7614 24.5 40 26.7386 40 29.5C40 28.9477 38.6569 28.5 37 28.5H19C17.3431 28.5 16 28.9477 16 29.5ZM40 32.5H16H40ZM16 32.5V26.5V32.5ZM40 26.5V32.5V26.5Z" fill="black" mask="url(#path-5-inside-3_6_439)"/>
<mask id="path-7-inside-4_6_439" fill="white">
<path d="M16 26.5C16 24.8431 17.3431 23.5 19 23.5H37C38.6569 23.5 40 24.8431 40 26.5V27.5C40 29.1569 38.6569 30.5 37 30.5H19C17.3431 30.5 16 29.1569 16 27.5V26.5Z"/>
</mask>
<path d="M16 23.5H40H16ZM40 27.5C40 30.2614 37.7614 32.5 35 32.5H21C18.2386 32.5 16 30.2614 16 27.5C16 28.0523 17.3431 28.5 19 28.5H37C38.6569 28.5 40 28.0523 40 27.5ZM16 30.5V23.5V30.5ZM40 23.5V30.5V23.5Z" fill="black" mask="url(#path-7-inside-4_6_439)"/>
<mask id="path-9-inside-5_6_439" fill="white">
<path d="M16 37.5C16 35.8431 17.3431 34.5 19 34.5H37C38.6569 34.5 40 35.8431 40 37.5C40 39.1569 38.6569 40.5 37 40.5H19C17.3431 40.5 16 39.1569 16 37.5Z"/>
</mask>
<path d="M16 37.5C16 34.7386 18.2386 32.5 21 32.5H35C37.7614 32.5 40 34.7386 40 37.5C40 36.9477 38.6569 36.5 37 36.5H19C17.3431 36.5 16 36.9477 16 37.5ZM40 40.5H16H40ZM16 40.5V34.5V40.5ZM40 34.5V40.5V34.5Z" fill="black" mask="url(#path-9-inside-5_6_439)"/>
<mask id="path-11-inside-6_6_439" fill="white">
<path d="M16 34.5C16 32.8431 17.3431 31.5 19 31.5H37C38.6569 31.5 40 32.8431 40 34.5V35.5C40 37.1569 38.6569 38.5 37 38.5H19C17.3431 38.5 16 37.1569 16 35.5V34.5Z"/>
</mask>
<path d="M16 31.5H40H16ZM40 35.5C40 38.2614 37.7614 40.5 35 40.5H21C18.2386 40.5 16 38.2614 16 35.5C16 36.0523 17.3431 36.5 19 36.5H37C38.6569 36.5 40 36.0523 40 35.5ZM16 38.5V31.5V38.5ZM40 31.5V38.5V31.5Z" fill="black" mask="url(#path-11-inside-6_6_439)"/>
</svg>
